# xmcd
#
# Track frame offsets:
#	150
#	17954
#	39169
#	53754
#	61854
#	81809
#	93677
#	106454
#	124524
#	138151
#	150099
#	165997
#
# Disc length: 2371 seconds
#
# Revision: 0
# Processed by: cddbd v1.4PL0 Copyright (c) Steve Scherf et al.
# Submitted via: dBpowerAMP V4.0
#
DISCID=8509410c
DTITLE=Norma Budden-Aningat - Calling On Your Name
DYEAR=1900
DGENRE=
TTITLE0=Waiting for Me
TTITLE1=Time
TTITLE2=There's Nothing Like It
TTITLE3=Until Jesus Comes
TTITLE4=Living Water
TTITLE5=The Reunion
TTITLE6=Calling On Your Name
TTITLE7=War
TTITLE8=Carry Me
TTITLE9=Eternal Love
TTITLE10=Jesus Is standing
TTITLE11=The Wind
EXTD=
EXTT0=
EXTT1=
EXTT2=
EXTT3=
EXTT4=
EXTT5=
EXTT6=
EXTT7=
EXTT8=
EXTT9=
EXTT10=
EXTT11=
PLAYORDER=
